<svg width="100" height="100"
    xmlns="http://www.w3.org/2000/svg" viewBox="0 0 24 24" version="1.1">
    <g id="Element/Icon/Faction/Demacia" stroke="none" stroke-width="1" fill="#fef3c7" fill-rule="nonzero">
        <path d="M12,23.6571429 C11.9310345,23.6571429 11.7931034,23.6571429 11.7241379,23.5885714 C11.2413793,23.2457143 10.7586207,22.9714286 10.4137931,22.6285714 C10.2758621,22.4914286 10.2068966,22.3542857 10.3448276,22.2171429 C11.0344828,21.3257143 11.0344828,19.6114286 10.8275862,18.6514286 C10.8275862,18.5142857 10.7586207,18.3771429 10.5517241,18.4457143 C10.5517241,18.4457143 6.48275862,19.5428571 4.06896552,17.8285714 C3.65517241,17.5542857 2.82758621,16.6628571 2.55172414,16.1828571 C2.20689655,15.4971429 2.06896552,14.6057143 2.4137931,14.9485714 C3.03448276,15.6342857 3.79310345,16.0457143 4.27586207,16.1142857 C4,15.7714286 2.4137931,14.4 2.34482759,13.6457143 C2.27586207,13.0971429 2.34482759,12.3428571 2.75862069,12.96 C3.24137931,13.7828571 4.89655172,15.0171429 5.44827586,15.2228571 C5.31034483,14.8114286 4.27586207,13.3028571 3.65517241,12.7542857 C3.24137931,12.3428571 2.89655172,11.8628571 2.89655172,11.4514286 C2.89655172,11.04 3.17241379,9.80571429 3.37931034,10.2857143 C3.44827586,10.56 4,11.52 4.4137931,12 C4.75862069,12.4114286 6,13.7142857 5.93103448,13.5771429 C6,12.96 4.96551724,11.3142857 4.4137931,10.6285714 C4.13793103,10.2857143 3.86206897,9.80571429 3.86206897,9.39428571 C3.86206897,8.70857143 4.27586207,7.26857143 4.48275862,7.88571429 C4.82758621,9.05142857 6,11.3142857 6.75862069,11.9314286 C6.82758621,11.7942857 6.68965517,10.7657143 6.4137931,10.2171429 C6,9.39428571 5.37931034,8.29714286 5.03448276,7.13142857 C4.75862069,6.30857143 4.96551724,5.48571429 5.72413793,4.59428571 C6.20689655,3.97714286 6.34482759,3.42857143 6.55172414,5.07428571 C6.62068966,6.10285714 6.82758621,7.2 6.96551724,8.29714286 C7.17241379,9.39428571 7.86206897,11.1085714 8.27586207,12.2057143 C8.34482759,12.4114286 8.20689655,12.96 8,13.0971429 C7.10344828,13.5771429 6.96551724,14.1942857 7.24137931,15.0171429 C7.93103448,17.0742857 8.55172414,16.3885714 9.44827586,15.5657143 C9.79310345,15.2914286 10.5517241,14.6742857 9.93103448,13.6457143 C9.86206897,13.5085714 9.79310345,13.44 9.86206897,13.3028571 C10.2758621,12.48 10.4137931,11.6571429 10.4827586,10.7657143 C10.5517241,9.18857143 10.3448276,6.85714286 9.37931034,5.34857143 C9.31034483,5.21142857 9.37931034,5.14285714 9.37931034,5.00571429 C9.79310345,3.29142857 10.8965517,1.85142857 12,0.342857143 L12,0.342857143 L12,0.274285714 C13.0344828,1.78285714 14.2068966,3.29142857 14.6206897,4.93714286 C14.6896552,5.07428571 14.6896552,5.14285714 14.6206897,5.28 C13.6551724,6.78857143 13.4482759,9.05142857 13.5172414,10.6971429 C13.5862069,11.52 13.7241379,12.4114286 14.137931,13.2342857 C14.2068966,13.3714286 14.137931,13.44 14.0689655,13.5771429 C13.4482759,14.6057143 14.2068966,15.2228571 14.5517241,15.4971429 C15.5172414,16.3885714 16.0689655,17.0057143 16.7586207,14.9485714 C17.0344828,14.1257143 16.8965517,13.5085714 16,13.0285714 C15.7931034,12.8914286 15.5172414,12.2057143 15.5862069,12 C16,10.8342857 16.8275862,9.25714286 17.0344828,8.16 C17.2413793,7.13142857 17.4482759,6.03428571 17.5172414,5.00571429 C17.6551724,3.36 17.7931034,3.84 18.3448276,4.45714286 C19.1034483,5.28 19.3103448,6.17142857 19.0344828,6.99428571 C18.6896552,8.16 18.0689655,9.25714286 17.6551724,10.08 C17.3793103,10.6285714 17.2413793,11.7257143 17.3103448,11.7942857 C18.0689655,11.1771429 19.2413793,8.91428571 19.5862069,7.74857143 C19.7931034,7.13142857 20.2068966,8.57142857 20.2068966,9.25714286 C20.2068966,9.66857143 19.9310345,10.1485714 19.6551724,10.4914286 C19.1034483,11.1771429 18.0689655,12.8228571 18.137931,13.44 C18.0689655,13.5771429 19.3103448,12.2742857 19.6551724,11.8628571 C20,11.4514286 20.5517241,10.4228571 20.6896552,10.1485714 C20.8965517,9.73714286 21.1724138,10.9028571 21.1724138,11.3142857 C21.1724138,11.7942857 20.8275862,12.2742857 20.4137931,12.6171429 C19.7931034,13.2342857 18.7586207,14.6742857 18.6206897,15.0857143 C19.1034483,14.88 20.8275862,13.6457143 21.3103448,12.8228571 C21.6551724,12.1371429 21.7931034,12.8914286 21.7241379,13.5085714 C21.6551724,14.2628571 20,15.7028571 19.7931034,15.9771429 C20.2758621,15.9771429 21.0344828,15.4971429 21.6551724,14.8114286 C21.9310345,14.4685714 21.7931034,15.36 21.4482759,15.9771429 C21.1724138,16.5942857 20.4137931,17.4171429 20.0689655,17.6914286 C17.7931034,19.4057143 13.4482759,18.3771429 13.4482759,18.3771429 C13.2413793,18.3085714 13.1724138,18.4457143 13.1724138,18.5828571 C13.0344828,19.5428571 12.9655172,21.1885714 13.6551724,22.1485714 C13.7241379,22.2857143 13.7241379,22.4228571 13.5862069,22.56 C13.2413793,22.9714286 12.7586207,23.2457143 12.2758621,23.52 C12.137931,23.5885714 12.0689655,23.5885714 12,23.5885714 L12,23.5885714 Z" id="Icon"></path>
    </g>
</svg>
