<svg width="100" height="100"
    xmlns="http://www.w3.org/2000/svg" viewBox="0 0 24 24" version="1.1">
    <g id="Element/Icon/Faction/Freljord" stroke="none" stroke-width="1" fill="#7dd3fc" fill-rule="nonzero">
        <path d="M13.9870968,14.3294118 C13.9870968,14.3294118 14.3419355,14.6823529 14.4129032,14.8941176 C14.483871,15.1058824 14.7677419,15.3176471 14.5548387,16.3764706 C14.2709677,17.4352941 12,23.3647059 12,23.3647059 L10.1548387,18.3529412 L11.7870968,16.7294118 C11.7870968,16.7294118 12.4258065,18 12.6387097,18.2117647 C12.7806452,18.4235294 13.2064516,16.8705882 13.2064516,16.8705882 L12.5677419,15.8823529 L13.9870968,14.3294118 Z M12,6.35294118 L15.0516129,10.3764706 C15.4064516,10.9411765 15.6193548,11.7176471 14.7677419,12.2823529 C13.916129,12.8470588 9.8,17.2941176 9.8,17.2941176 C9.8,17.2941176 9.58709677,16.6588235 9.30322581,15.8117647 C9.09032258,15.1058824 9.23225806,14.8235294 9.65806452,14.4 C10.083871,13.9764706 12.8516129,11.5058824 12.9935484,11.2941176 C13.1354839,11.0823529 11.716129,9.31764706 11.716129,9.31764706 L11.716129,9.31764706 L10.8645161,10.0941176 L11.5032258,11.0117647 L9.87096774,12.6352941 C9.87096774,12.6352941 8.9483871,11.3647059 8.73548387,10.9411765 C8.4516129,10.4470588 8.30967742,10.0941176 8.73548387,9.74117647 C9.16129032,9.38823529 12,6.35294118 12,6.35294118 L12,6.35294118 Z M17.1096774,6.70588235 L22.716129,8.11764706 C23.1419355,8.32941176 22.8580645,8.61176471 22.8580645,8.61176471 C22.8580645,8.61176471 20.0903226,10.3058824 19.8064516,10.3764706 C19.5935484,10.4470588 19.3096774,10.8705882 19.1677419,11.2941176 C19.0258065,11.6470588 17.6064516,16.2352941 17.5354839,16.6588235 C17.3935484,17.0823529 17.1806452,17.5058824 17.1096774,16.9411765 C17.0387097,16.3764706 16.8967742,11.0823529 16.8258065,10.3764706 C16.7548387,9.67058824 15.5483871,8.47058824 15.5483871,8.47058824 L15.5483871,8.47058824 L17.1096774,6.70588235 Z M6.89032258,6.35294118 L8.4516129,8.11764706 L8.41014204,8.15976761 C8.19753086,8.37821351 7.23727599,9.39607843 7.17419355,10.0235294 C7.10322581,10.7294118 6.96129032,16.0235294 6.89032258,16.5882353 C6.81935484,17.1529412 6.60645161,16.7294118 6.46451613,16.3058824 C6.39354839,15.8823529 4.97419355,11.2941176 4.83225806,10.9411765 C4.69032258,10.5882353 4.40645161,10.0941176 4.19354839,10.0235294 C3.90967742,9.95294118 1.14193548,8.25882353 1.14193548,8.25882353 C1.14193548,8.25882353 0.858064516,7.90588235 1.28387097,7.76470588 L6.89032258,6.35294118 Z M9.87096774,7.05882353 L7.74193548,5.01176471 L3.48387097,5.64705882 L6.67741935,1.33226763e-15 L10.5806452,0.423529412 L10.0129032,2.25882353 L8.66451613,2.25882353 L8.80645161,1.62352941 L7.67096774,1.48235294 L6.7483871,3.45882353 L9.87096774,3.45882353 C10.7225806,2.61176471 12,2.75294118 12,2.75294118 C12,2.75294118 13.2774194,2.61176471 14.1290323,3.45882353 L17.2516129,3.45882353 L16.3290323,1.48235294 L15.1935484,1.62352941 L15.4064516,2.25882353 L14.0580645,2.25882353 L13.3483871,0.423529412 L17.3225806,1.33226763e-15 L20.516129,5.64705882 L16.2580645,5.01176471 L14.1290323,7.05882353 L12,4.23529412 L9.87096774,7.05882353 Z" id="Icon"></path>
    </g>
</svg>
