<svg width="100" height="100"
  xmlns="http://www.w3.org/2000/svg" viewBox="0 0 16 16">
  <g id="Element/Icon/Faction/Bandle" fill="#bef264" fill-rule="nonzero">
    <path d="M11.9036 2.65212C12.7289 3.72732 13.0064 4.75814 13.0064 6.17621C13.0064 7.58015 12.2994 9.41788 10.8331 10.6946C10.7643 10.7545 10.7854 10.8674 10.8729 10.8933C11.9413 11.2094 12.2729 10.8253 12.6582 10.379C12.6957 10.3355 12.7338 10.2914 12.773 10.2474C12.8702 10.1311 13.0997 9.92169 13.2396 10.0147C13.3796 10.1078 13.2202 10.4025 13.1229 10.5382C12.9675 10.7708 12.5281 11.2594 12.0148 11.3524C11.7913 11.3929 11.4805 11.4064 11.1415 11.4211C10.5075 11.4486 9.77512 11.4804 9.3319 11.7014C9.0986 11.8177 7.93212 12.5156 7.93212 13.6788C7.93212 13.9114 7.99044 14.3767 8.22374 14.3767C8.51536 14.3767 8.51536 13.9696 8.51536 13.8533C8.51536 13.8401 8.51461 13.8173 8.51363 13.787C8.5059 13.5505 8.48345 12.8645 8.69033 12.8645C8.92363 12.8645 8.98195 13.5043 8.98195 13.7951C8.98195 14.4375 8.51536 15.4818 8.04877 15.4818C7.75715 15.4818 7.2174 14.6517 7.05726 13.8533C6.94061 13.2716 6.70733 12.6993 6.18241 12.3411C5.07425 11.5851 4.49101 11.2361 3.96609 11.0616C3.57134 10.9304 3.26084 10.9027 3.05126 10.884C2.84955 10.866 2.74129 10.8564 2.74129 10.7708C2.74129 10.5963 3.61615 10.5731 4.02442 10.6545C4.05739 10.6611 4.09037 10.667 4.12435 10.6731C4.50383 10.7409 5.0097 10.8313 7.05322 12.1468C7.115 12.1866 7.1996 12.1615 7.23086 12.0951C7.38873 11.7599 7.73518 11.1768 8.22374 10.7708C8.36885 10.6502 8.62679 10.5122 8.94452 10.342C10.1593 9.69174 12.2481 8.57348 12.2481 6.17621C12.2481 3.83401 11.7379 2.93802 11.4584 2.76008C11.4413 2.74919 11.421 2.74559 11.4007 2.74579C11.0452 2.7493 10.4401 2.49208 10.4401 1.81424C10.4401 1.40712 10.79 1 11.3149 1C11.8399 1 12.1898 1.40712 12.1898 1.87239C12.1898 2.19029 12.0217 2.39423 11.9152 2.49947C11.8733 2.54099 11.8677 2.60528 11.9036 2.65212ZM11.3149 1.34896C11.5482 1.34896 11.7232 1.5816 11.7232 1.81424C11.7232 2.04687 11.5482 2.22135 11.3149 2.22135C11.0816 2.22135 10.9066 2.04687 10.9066 1.81424C10.9066 1.5816 11.0816 1.34896 11.3149 1.34896Z"/>
    <path d="M13.8382 9.20063C15.2155 8.56993 15.7077 7.51621 15.3148 5.79421C15.2983 5.72165 15.2175 5.68427 15.1529 5.72141C14.0991 6.32645 13.4673 7.7091 13.6817 9.11698C13.693 9.19016 13.7707 9.23152 13.8382 9.20063Z"/>
    <path d="M0.666074 5.79421C0.273195 7.51621 0.765399 8.56993 2.14269 9.20063C2.21014 9.23152 2.288 9.19016 2.29915 9.11698C2.51359 7.7091 1.88175 6.32645 0.828027 5.72141C0.763357 5.68427 0.68263 5.72165 0.666074 5.79421Z"/>
    <path d="M6.73892 11.4167C4.70369 10.1685 3.95815 9.41651 3.38286 8.2118C2.70864 6.79993 2.95884 4.23645 4.20211 2.70461C4.25472 2.63979 4.22754 2.53991 4.15711 2.49497C4.01562 2.40468 3.84945 2.22507 3.84945 1.87239C3.84945 1.23264 4.31605 1 4.72431 1C5.13258 1 5.59918 1.23264 5.59918 1.87239C5.59918 2.36739 5.21728 2.72095 4.61179 2.74363C4.57282 2.74509 4.53652 2.76364 4.51565 2.79648C3.72638 4.03839 3.5045 6.59282 4.14107 7.80468C4.76685 8.99597 5.72555 9.63394 7.45017 10.5282C7.51718 10.5629 7.53455 10.6512 7.48509 10.7081L6.88867 11.3943C6.85134 11.4373 6.78746 11.4465 6.73892 11.4167ZM4.72431 1.34896C4.95761 1.34896 5.13258 1.5816 5.13258 1.81424C5.13258 2.04687 4.95761 2.22135 4.72431 2.22135C4.49102 2.22135 4.31605 2.04687 4.31605 1.81424C4.31605 1.5816 4.49102 1.34896 4.72431 1.34896Z"/>
    <path d="M15.9011 10.2204C15.549 9.87991 14.677 9.4163 13.6527 10.051C13.5894 10.0903 13.5834 10.1789 13.6398 10.2275C14.2879 10.7848 14.9925 11.0595 15.8889 10.3783C15.9403 10.3392 15.9476 10.2653 15.9011 10.2204Z"/>
    <path d="M2.3282 10.051C1.30385 9.4163 0.431898 9.87991 0.0798328 10.2204C0.033396 10.2653 0.0405648 10.3392 0.0920134 10.3783C0.988407 11.0595 1.69306 10.7848 2.34104 10.2275C2.39754 10.1789 2.39156 10.0903 2.3282 10.051Z"/>
    <path d="M11.1983 5.71093C11.1983 4.55088 10.4558 3.24276 9.08923 2.76125C8.95638 2.71444 8.92613 2.86264 9.05345 2.92278C10.326 3.52376 10.4401 4.53896 10.4401 5.47829C10.4401 6.93228 9.27358 7.74651 8.16542 7.74651C7.05727 7.74651 6.06577 6.81596 6.06577 5.65277C6.06577 4.48957 7.05727 3.90797 7.75716 3.90797C8.45704 3.90797 9.09861 4.37325 9.09861 5.24564C9.09861 6.11804 8.45704 6.35068 8.1071 6.35068C7.75716 6.35068 7.29056 6.05988 7.29056 5.53645C7.29056 5.013 7.69883 4.95485 7.81548 4.95485C7.93213 4.95485 8.16542 4.95485 8.16542 5.24564C8.16542 5.42378 8.01222 5.49279 7.89352 5.54627C7.81845 5.58009 7.75716 5.6077 7.75716 5.65277C7.75716 5.76908 7.93213 5.8854 8.1071 5.8854C8.28207 5.8854 8.63202 5.71093 8.63202 5.24564C8.63202 4.78037 8.22375 4.37325 7.75716 4.37325C7.29056 4.37325 6.64901 4.83853 6.64901 5.59461C6.64901 6.35068 7.40721 7.0486 8.16542 7.0486C8.92364 7.0486 9.91515 6.35068 9.91515 5.24564C9.91515 4.0243 8.86531 2.97742 7.58218 2.97742C6.18242 2.97742 4.78264 3.84981 4.78264 5.53645C4.78264 7.22307 6.06577 8.79338 7.99045 8.79338C9.91515 8.79338 11.1983 7.16491 11.1983 5.71093Z"/>
  </g>
</svg>
