<?xml version="1.0" encoding="UTF-8"?>
<svg width="24px" height="24px" viewBox="0 0 24 24" version="1.1" xmlns="http://www.w3.org/2000/svg" xmlns:xlink="http://www.w3.org/1999/xlink">

    <g id="Element/Icon/Faction/Ionia" stroke="none" stroke-width="1" fill="none" fill-rule="evenodd">
        <path d="M11.3482759,0.436363636 C15.0413793,0.436363636 16.7068966,1.96363636 17.8655172,3.34545455 C22.0701891,8.34252199 18.8149593,11.8411503 18.6005691,12.0616684 L18.5896552,12.0727273 C18.5896552,12.0727273 17.2862069,8.21818182 12.0724138,8.65454545 C9.17586207,8.87272727 6.7862069,12.4363636 6.7862069,14.7636364 C6.7137931,17.3818182 8.30689655,21.0909091 12.8689655,21.3090909 C15.7655172,21.4545455 19.9655172,20.5818182 22.137931,12 C22.137931,12 22.3551724,18.9090909 17.7931034,22.1090909 C12.5793103,25.7454545 4.97586207,22.2545455 3.31034483,17.8181818 C1.64482759,13.3818182 3.81724138,9.30909091 4.75862069,8.36363636 C4.75862069,8.36363636 3.31034483,8.87272727 1.86206897,10.5454545 C1.86206897,10.5454545 3.31034483,5.81818182 7.65517241,4 C7.65517241,4 5.26551724,3.2 3.81724138,3.78181818 C3.81724138,3.78181818 7.87241379,0.727272727 14.2448276,2.61818182 C13.3758621,1.09090909 11.3482759,0.436363636 11.3482759,0.436363636 Z M13.5931034,11.9272727 C13.5931034,12.8727273 15.6206897,13.8181818 15.6206897,15.1272727 C15.6206897,16.4363636 14.462069,17.4545455 13.0862069,17.4545455 C11.7103448,17.4545455 10.5517241,16.4363636 10.5517241,15.1272727 C10.5517241,13.0181818 13.5931034,10.6181818 13.5931034,11.9272727 Z M17.5758621,7.27272727 C16.6344828,5.6 13.8827586,4.94545455 14.1724138,5.16363636 C15.1862069,5.89090909 15.9827586,6.25454545 16.4896552,8 C16.562069,8.36363636 17.2137931,8.58181818 17.5034483,8.29090909 C17.7931034,8 17.7931034,7.63636364 17.5758621,7.27272727 Z" id="Icon" fill="#CF829B" fill-rule="nonzero"></path>
    </g>
</svg>
