<svg width="100" height="100"
    xmlns="http://www.w3.org/2000/svg" viewBox="-1 -0.5 25 24" version="1.1">
    <g id="Element/Icon/Faction/Noxus" stroke="none" stroke-width="1" fill="#f87171" fill-rule="nonzero">
        <path d="M15.2,0.863636364 C18.7636364,1.00909091 21.2363636,4.57272727 21.5272727,5.08181818 C21.8181818,5.59090909 20.2181818,6.39090909 21.0181818,7.33636364 C21.8181818,8.28181818 22.4,7.62727273 22.9090909,8.06363636 C23.3454545,8.5 23.4181818,10.2454545 23.1272727,11.5545455 C22.8363636,12.8636364 21.3818182,14.6818182 19.4181818,16.0636364 C17.4545455,17.4454545 18.6181818,19.7727273 18.6181818,19.7727273 C18.6181818,19.7727273 16.4363636,18.4636364 16.5090909,16.5 C16.6545455,14.5363636 17.9636364,14.0272727 18.1818182,13.2272727 C18.4,12.4272727 17.9636364,12.4272727 17.3818182,12.6454545 C16.8,12.8636364 15.5636364,14.1727273 14.9818182,15.3363636 C14.4,16.5 14.7636364,18.8272727 14.9818182,19.3363636 C15.2,19.7727273 15.0545455,20.5727273 14.2545455,21.0090909 C13.4545455,21.3727273 12.6545455,22.7545455 12.6545455,22.7545455 L12.6545455,22.7545455 L12.6545455,15.0454545 C12.6545455,13.3 13.0909091,12.7181818 13.3090909,12.5727273 C13.5272727,12.4272727 13.5272727,12.8636364 14.1818182,12.9363636 C14.8363636,13.0090909 15.1272727,12.7181818 15.3454545,12.3545455 C15.5636364,11.9909091 16.2181818,10.1 16.2181818,10.1 C16.2181818,10.1 13.8181818,11.7 13.3090909,11.4818182 C12.8,11.2636364 12.5818182,10.9 12.5818182,10.2454545 L12.5818182,10.2454545 L12.5818182,2.24545455 L14.1090909,4.5 L14.1090909,4.5 L14.1090909,5.66363636 C14.1090909,7.04545455 14.6181818,9.15454545 16.8,7.84545455 C18.9818182,6.53636364 18.1818182,2.9 15.2,0.863636364 Z M8.8,0.863636364 C5.89090909,2.82727273 5.09090909,6.46363636 7.27272727,7.84545455 C9.45454545,9.22727273 9.96363636,7.04545455 9.96363636,5.66363636 L9.96363636,4.5 L9.96363636,4.5 L11.4181818,2.24545455 L11.4181818,10.2454545 L11.4181818,10.2454545 C11.4181818,10.9 11.2,11.2636364 10.6909091,11.4818182 C10.1818182,11.7 7.78181818,10.1 7.78181818,10.1 C7.78181818,10.1 8.43636364,11.9909091 8.65454545,12.3545455 C8.87272727,12.7181818 9.16363636,13.0090909 9.81818182,12.9363636 C10.4727273,12.8636364 10.4727273,12.4272727 10.6909091,12.5727273 C10.9090909,12.7181818 11.3454545,13.3 11.3454545,15.0454545 L11.3454545,22.7545455 L11.3454545,22.7545455 C11.3454545,22.7545455 10.5454545,21.3727273 9.74545455,21.0090909 C8.94545455,20.5727273 8.8,19.7727273 9.01818182,19.3363636 C9.23636364,18.9 9.6,16.5 9.01818182,15.3363636 C8.43636364,14.1727273 7.2,12.8636364 6.61818182,12.6454545 C6.03636364,12.4272727 5.6,12.4272727 5.81818182,13.2272727 C6.03636364,14.0272727 7.34545455,14.5363636 7.49090909,16.5 C7.56363636,18.4636364 5.38181818,19.7727273 5.38181818,19.7727273 C5.38181818,19.7727273 6.54545455,17.4454545 4.58181818,16.0636364 C2.61818182,14.6818182 1.16363636,12.7909091 0.872727273,11.4090909 C0.581818182,10.1 0.654545455,8.35454545 1.09090909,7.91818182 C1.6,7.48181818 2.18181818,8.13636364 2.98181818,7.19090909 C3.78181818,6.24545455 2.18181818,5.59090909 2.47272727,5.08181818 C2.76363636,4.5 5.23636364,1.00909091 8.8,0.863636364 Z" id="Icon"></path>
    </g>
</svg>
