<svg width="100" height="100"
    xmlns="http://www.w3.org/2000/svg" viewBox="0 0 24 24" version="1.1">
    <g id="Element/Icon/Faction/PiltoverZaun" stroke="none" stroke-width="1" fill="#fbbf24" fill-rule="nonzero">
        <path d="M11.9914286,0.411428571 L14.3914286,1.85142857 L14.3914286,5.89714286 L16.1742857,6.99428571 L16.1742857,5.21142857 L17.4771429,4.38857143 L18.9171429,5.21142857 L18.9171429,10.0114286 L20.7,11.04 L20.7,9.25714286 L21.5914286,8.77714286 L22.3457143,9.18857143 L22.3457143,12.48 C22.3457143,12.48 19.8085714,13.9885714 19.8085714,16.4571429 C19.8085714,16.4571429 18.78,18.4457143 18.2314286,18.4457143 C17.8885714,18.4457143 17.2028571,17.6914286 16.86,17.4171429 C16.5171429,17.6228571 16.1742857,17.6914286 16.1742857,17.9657143 L16.1742857,17.9657143 L16.1742857,19.2685714 L14.8714286,20.16 C14.5285714,20.4342857 14.3228571,20.7085714 14.3228571,21.0514286 L14.3228571,21.0514286 L14.3228571,21.3942857 L12.06,23.5885714 L9.79714286,21.3942857 L9.79714286,21.0514286 C9.79714286,20.7085714 9.59142857,20.3657143 9.24857143,20.16 L9.24857143,20.16 L7.94571429,19.2685714 L7.94571429,17.9657143 C7.94571429,17.6914286 7.60285714,17.6228571 7.26,17.4171429 C6.91714286,17.6228571 6.23142857,18.4457143 5.88857143,18.4457143 C5.34,18.4457143 4.31142857,16.4571429 4.31142857,16.4571429 C4.31142857,14.1531429 2.10129524,12.6854095 1.80661079,12.4999517 L1.77428571,12.48 L1.77428571,9.18857143 L2.59714286,8.70857143 L3.48857143,9.18857143 L3.48857143,10.9714286 L5.27142857,9.94285714 L5.27142857,5.14285714 L6.64285714,4.32 L7.94571429,5.14285714 L7.94571429,6.92571429 L9.72857143,5.82857143 L9.72857143,1.78285714 L11.9914286,0.411428571 Z M11.9914286,7.81714286 C9.31714286,7.81714286 7.19142857,9.94285714 7.19142857,12.6171429 C7.19142857,14.6057143 8.35714286,16.2514286 10.0028571,17.0057143 L10.0028571,17.0057143 L10.0028571,18.6514286 C10.14,18.7885714 11.0314286,19.4742857 11.1685714,19.5428571 L11.1685714,19.5428571 L11.1685714,20.7085714 C11.1685714,20.7085714 11.58,21.4628571 12.1285714,21.4628571 C12.5927473,21.4628571 12.958732,20.9228064 13.0603563,20.756637 L13.0885714,20.7085714 L13.0885714,19.5428571 C13.2942857,19.4742857 14.1171429,18.72 14.2542857,18.6514286 L14.2542857,18.6514286 L14.2542857,17.0057143 C15.8314286,16.1828571 16.9285714,14.6057143 16.7914286,12.6171429 C16.7914286,9.94285714 14.6657143,7.81714286 11.9914286,7.81714286 Z M11.3742857,10.3542857 L12.06,10.9714286 L12.1285714,11.1771429 L12.2657143,11.04 L12.9514286,10.4228571 L13.7057143,10.9028571 L13.5,11.9314286 L13.6371429,12 L14.5285714,12.2742857 L14.5285714,13.1657143 L13.6371429,13.44 L13.5,13.5085714 L13.5,13.6457143 L13.7057143,14.5371429 L12.9514286,15.0171429 L12.1971429,14.3314286 L11.3742857,15.0171429 L10.62,14.5371429 L10.8257143,13.6457143 L10.8942857,13.3714286 L9.86571429,13.0285714 L9.86571429,12.1371429 L10.8942857,11.7942857 L10.8257143,11.6571429 L10.62,10.8342857 L11.3742857,10.3542857 Z" id="Icon"></path>
    </g>
</svg>
