<svg width="100" height="100"
    xmlns="http://www.w3.org/2000/svg" viewBox="0 0 24 24" version="1.1">
    <g id="Element/Icon/Faction/Bilgewater" stroke="none" stroke-width="1" fill="#d97706" fill-rule="nonzero">
        <path d="M14.5640324,15.4570711 C14.5640324,17.8688127 14.7832816,20.2074712 13.2485369,22.3268805 C12.8100385,22.9846282 12.1522908,23.4962098 11.42146,23.8616252 C11.1291277,24.0077913 10.8367953,24.0808744 10.544463,23.8616252 C10.3252138,23.6423759 10.4713799,23.3500436 10.6175461,23.1307944 C11.0560446,22.1076313 11.7868754,19.1843081 11.494543,16.4802342 C11.42146,15.6763204 12.8831215,14.7993234 14.1255339,14.2877419 C14.5640324,14.1415757 14.4909493,15.0185727 14.5640324,15.4570711 Z M16.098777,6.90635093 C16.1718601,6.76018477 16.3911093,6.83326785 16.4641924,6.90635093 C19.826014,10.4143387 16.9026909,12.9722465 15.7333616,13.3376618 C15.6602785,13.4107449 15.5141124,13.3376618 15.5141124,13.1914957 C15.5141124,13.0453295 15.5141124,12.7529972 15.4410293,12.6799141 C15.4410293,12.6799141 10.2521307,15.0916557 10.4713799,16.3340681 C10.4713799,16.4802342 10.6906292,16.9187327 10.9098784,17.211065 C11.0560446,17.4303142 10.8367953,20.8652189 10.544463,20.6459697 C9.9597984,20.1343882 8.05963835,19.1843081 8.13272143,17.2841481 L8.13272143,17.2841481 L8.05907309,17.2960038 C7.68587784,17.2874356 7.62113988,16.1707059 7.62113988,15.8955696 C7.25572449,11.5105849 15.0756139,10.5605049 15.0025308,9.17192636 L15.0025308,9.17192636 L14.9294477,7.92951403 C14.9294477,7.78334787 15.0025308,7.71026479 15.148697,7.63718171 L15.148697,7.63718171 Z M18.7297678,16.9918158 C18.875934,18.3803943 17.4873555,19.6228066 14.7832816,20.2805543 C15.0025308,19.6228066 15.0025308,18.8188927 15.0025308,18.3073112 C15.0025308,17.9418958 14.9294477,18.0149789 15.2948631,17.8688127 C17.4873555,16.9918158 17.048857,16.1148188 16.2449432,14.7993234 C16.1718601,14.7262403 16.098777,14.5800742 16.3180262,14.5069911 C16.7565247,14.1415757 18.7297678,15.8224865 18.7297678,16.9918158 Z M8.42505375,4.34844318 C8.57121991,4.86002473 8.13272143,5.07927396 8.13272143,5.44468936 C8.35197067,5.37160628 8.86355222,4.86002473 8.9366353,5.00619088 C9.22896761,5.44468936 9.9597984,6.39476938 10.4713799,6.90635093 C10.7637123,7.19868324 11.0560446,7.41793248 11.0560446,7.41793248 C11.0560446,9.02576021 10.544463,11.9490834 7.69422296,11.9490834 C7.40189065,11.9490834 7.10955833,12.0221664 7.03647525,11.656751 C7.03647525,11.2182526 7.32880757,11.3644187 7.5480568,11.2913356 C7.62113988,11.2913356 7.76730604,11.1451695 7.84038912,11.0720864 C8.42505375,10.5605049 9.08280146,10.1220064 8.64430298,9.09884329 C8.57121991,8.87959405 8.86355222,8.58726174 9.00971838,8.29492942 C8.49813683,8.00259711 8.42505375,7.63718171 8.57121991,6.83326785 C8.05963835,7.49101556 7.76730604,7.85643095 7.40189065,8.29492942 C7.47497373,8.44109558 7.5480568,8.51417866 7.5480568,8.66034481 C7.69422296,8.66034481 8.05963835,8.80651097 8.05963835,8.80651097 L8.05963835,8.80651097 L7.5480568,9.24500944 L7.5480568,9.24500944 L7.5480568,9.31809252 L8.05963835,9.97584023 L7.25572449,10.1950895 L7.25572449,10.1950895 L7.234,10.206 L7.32880757,10.4874218 L6.74414294,10.4143387 C6.45181063,10.4874218 6.08639523,10.4874218 5.79406292,10.2681725 C5.5017306,10.0489233 5.35556445,9.75659099 5.28248137,9.53734176 C5.20939829,9.24500944 5.28248137,8.87959405 5.28248137,8.58726174 L5.28248137,8.58726174 L5.27105274,8.324303 C5.27345877,7.63537719 5.52609163,7.0362764 5.72097984,6.3216863 C5.94022908,6.68710169 6.15947831,7.12560016 6.45181063,6.39476938 C6.81722602,5.44468936 7.47497373,4.78694165 8.42505375,4.34844318 Z M12.5907892,0.109624618 C12.7369554,-0.0365415393 12.8831215,-0.0365415393 13.0292877,0.109624618 L13.0292877,0.109624618 L14.0524508,1.2058708 C14.0524508,1.2058708 16.7565247,1.71745235 16.6103586,3.83686163 C16.5372755,5.95627091 14.2717,6.68710169 14.2717,6.68710169 L14.2717,6.68710169 L14.2717,8.87959405 C14.2717,9.46425868 12.5907892,9.97584023 11.9330415,10.1950895 C11.7868754,10.2681725 11.7137923,10.1950895 11.7137923,10.0489233 L11.7137923,10.0489233 L11.7137923,6.97943401 C8.79046914,4.71385857 9.81363224,3.47144623 10.0328815,3.83686163 C10.7637123,4.86002473 12.2253738,5.2985232 12.2253738,5.2985232 L12.2253738,5.2985232 L12.2253738,2.15595082 L11.7137923,1.64436927 C11.5676261,1.49820311 11.5676261,1.2058708 11.7137923,1.05970464 C12.0061246,0.767372325 12.37154,0.328873854 12.5907892,0.109624618 Z M6.67105986,8.66034481 C6.59797678,8.07568018 6.37872755,7.63718171 6.23256139,8.00259711 C6.15947831,8.22184634 5.79406292,8.87959405 6.15947831,9.02576021 C6.37872755,9.09884329 6.67105986,8.87959405 6.67105986,8.66034481 Z M13.7601185,2.81369853 L13.7601185,5.07927396 C13.7601185,5.07927396 15.0756139,4.86002473 15.0756139,3.98302778 C15.2217801,3.03294776 13.7601185,2.81369853 13.7601185,2.81369853 L13.7601185,2.81369853 Z" id="Icon"></path>
    </g>
</svg>
