<svg width="100" height="100"
  xmlns="http://www.w3.org/2000/svg" viewBox="6 5 120 115">
  <g id="Element/Icon/Faction/Shurima" fill="#fcd34d" fill-rule="nonzero">
    <path d="M64.1 47.3c-9.3 0-17.5-7.9-17.4-16.9.1-9.6 8.1-17.8 17.4-17.7 9.2.1 17 8 17 17.4 0 9.4-7.6 17.1-17 17.2zM71.4 75.3c-1-6.4-4.1-20.7-4.6-21.3-.9.1-1.9.2-2.9.2-.9 0-2.2-.1-3-.2-.2.6-5 18.5-4.9 21.3 0 1.2 4.5 22.1 6.7 33 .6 2.8 1 4.1 1.3 4.1.3 0 .9-2.4 1.4-6.5 1.2-8.1 6.2-29.3 6-30.6zM74.7 72.7c1.9-3.5 4-6.7 6.3-9.7-.1-.4-3.8-8.5-5.1-10.8-.1-.2-.4-1.2-.5-1.4-1.8 1.1-3.7 1.9-5.8 2.4-.3.5 3.4 13.9 5.1 19.5zM84.3 60.2c1.5-1.8 3.8-4.1 6.5-6.4l-9.1-8.1c-1.2 1.4-2.9 2.8-4.4 3.9.1.6 6.5 10.1 7 10.6zM94.6 51.7c6-4.3 9.5-7.2 17.6-10 1.6-.8 4.1-1.2 6-2.1-10.4-1.2-23.1-4-31.2-9.7-.1-.1.1.1 0 0-.3 4.6-1.5 9.4-3.9 13 .7 1.5 8.1 7 11.5 8.8zM52.8 72.7c-1.9-3.5-4-6.7-6.3-9.7.1-.4 3.8-8.5 5.1-10.8.1-.2.5-1.2.6-1.4 1.8 1.1 3.7 1.9 5.8 2.4.2.5-3.5 13.9-5.2 19.5zM43.1 60.2c-1.5-1.8-3.8-4.1-6.5-6.4l9.3-8.1c1.2 1.4 2.9 2.8 4.4 3.9.1.6-6.6 10.1-7.2 10.6zM32.9 51.7c-6-4.3-9.5-7.2-17.6-10-1.6-.8-4.1-1.2-6-2.1 10.4-1.2 23.6-4 31.6-9.7.1-.1-.1.1 0 0 .3 4.6 1.4 9.7 3.7 13.3-.7 1.5-8.3 6.7-11.7 8.5z"/>
  </g>
</svg>