<svg width="100" height="100"
	xmlns="http://www.w3.org/2000/svg" viewBox="0 0 33 33">
	<g id="Element/Icon/Faction/Targon" fill="#a78bfa" fill-rule="nonzero">
		<path d="M33.2,5c0,0-0.7,0.1-1.4,0.1c-0.5-0.9-1.4-1.5-2.5-1.5c-1.5,0-2.8,1.2-2.9,2.7l-2.9,1
				c-1.8-2.1-4.5-3.5-7.6-3.5c-5.2,0-9.4,4-9.9,9.1l-1.8,0.6c-0.3-0.3-0.7-0.4-1.2-0.4c-1,0-1.9,0.8-1.9,1.9c0,1,0.8,1.9,1.9,1.9
				c0.9,0,1.6-0.6,1.8-1.4l1.2-0.3c0.2,1.4,0.7,2.8,1.4,3.9l0.8-2.7c-0.3-0.8-0.4-1.6-0.4-2.5c0-4.5,3.6-8.1,8-8.1s8,3.6,8,8.1
				c0,1.5-0.4,2.9-1.1,4.1l0.6,2.4c1.6-1.7,2.5-4,2.5-6.6c0-1.6-0.4-3.1-1-4.4l2.3-1c0.5,0.6,1.3,1,2.2,1c1.6,0,2.9-1.3,2.9-2.9
				c0-0.1,0-0.3,0-0.4L33.2,5z"/>
		<path d="M16.1,11.7L16,9.1L15.8,9c-1,0.8-3.2,2.8-3.2,2.8l-2,12l3.1,2.7l1.7-4.7L16,32.9l4.3-6.9l-2.1-13.6
				L16.1,11.7z"/>
	</g>
</svg>
